# Blender v2.93.6 OBJ File: 'Experiment.blend'
# www.blender.org
mtllib PlaneWithDoorHole.mtl
o Plane
v 1.000000 1.000000 -0.000000
v -1.000000 1.000000 -0.000000
v 1.000000 -1.000000 0.000000
v -1.000000 -1.000000 0.000000
v 0.433013 0.500000 -0.000000
v 0.250000 0.683013 -0.000000
v 0.000000 0.750000 -0.000000
v -0.500000 -0.061426 0.000000
v -0.500000 0.250000 -0.000000
v -0.250000 0.683013 -0.000000
v -0.433013 0.500000 -0.000000
v 0.500000 0.250000 -0.000000
v 0.500000 -1.000000 0.000000
v -0.500000 -1.000000 0.000000
vt 0.000000 1.000000
vt 0.000000 0.000000
vt 1.000000 0.000000
vt 1.000000 1.000000
vt 0.750000 1.000000
vt 0.750000 0.530713
vt 0.750000 0.375000
vt 0.716506 0.250000
vt 0.625000 0.158494
vt 0.500000 0.125000
vt 0.375000 0.158494
vt 0.283494 0.250000
vt 0.250000 0.375000
vt 0.250000 1.000000
vn 0.0000 0.0000 1.0000
usemtl None
s off
f 3/1/1 1/2/1 2/3/1 4/4/1 14/5/1 8/6/1 9/7/1 11/8/1 10/9/1 7/10/1 6/11/1 5/12/1 12/13/1 13/14/1
